<svg width="65" height="65" viewBox="0 0 65 65" fill="none" xmlns="http://www.w3.org/2000/svg">
<path d="M32.5 0C50.4481 0 65 14.5519 65 32.5C65 50.4481 50.4481 65 32.5 65C14.5519 65 0 50.4481 0 32.5C0 14.5519 14.5519 0 32.5 0ZM32.5 4.0625C16.7944 4.0625 4.0625 16.7944 4.0625 32.5C4.0625 48.2056 16.7944 60.9375 32.5 60.9375C48.2056 60.9375 60.9375 48.2056 60.9375 32.5C60.9375 16.7944 48.2056 4.0625 32.5 4.0625ZM32.5 16.25C33.0387 16.25 33.5554 16.464 33.9363 16.8449C34.3172 17.2259 34.5312 17.7425 34.5312 18.2812V30.4688H46.7188C47.2575 30.4688 47.7741 30.6828 48.1551 31.0637C48.536 31.4446 48.75 31.9613 48.75 32.5C48.75 33.0387 48.536 33.5554 48.1551 33.9363C47.7741 34.3172 47.2575 34.5312 46.7188 34.5312H34.5312V46.7188C34.5312 47.2575 34.3172 47.7741 33.9363 48.1551C33.5554 48.536 33.0387 48.75 32.5 48.75C31.9613 48.75 31.4446 48.536 31.0637 48.1551C30.6828 47.7741 30.4688 47.2575 30.4688 46.7188V34.5312H18.2812C17.7425 34.5312 17.2259 34.3172 16.8449 33.9363C16.464 33.5554 16.25 33.0387 16.25 32.5C16.25 31.9613 16.464 31.4446 16.8449 31.0637C17.2259 30.6828 17.7425 30.4688 18.2812 30.4688H30.4688V18.2812C30.4688 17.7425 30.6828 17.2259 31.0637 16.8449C31.4446 16.464 31.9613 16.25 32.5 16.25Z" fill="#374C98"/>
</svg>
