<svg width="27" height="22" viewBox="0 0 27 22" fill="none" xmlns="http://www.w3.org/2000/svg">
<path d="M13.5 11.9166C14.1213 11.9166 14.625 11.5062 14.625 11C14.625 10.4937 14.1213 10.0833 13.5 10.0833C12.8787 10.0833 12.375 10.4937 12.375 11C12.375 11.5062 12.8787 11.9166 13.5 11.9166Z" stroke="#343434" stroke-width="2" stroke-linecap="round" stroke-linejoin="round"/>
<path d="M13.5 5.50002C14.1213 5.50002 14.625 5.08961 14.625 4.58335C14.625 4.07709 14.1213 3.66669 13.5 3.66669C12.8787 3.66669 12.375 4.07709 12.375 4.58335C12.375 5.08961 12.8787 5.50002 13.5 5.50002Z" stroke="#343434" stroke-width="2" stroke-linecap="round" stroke-linejoin="round"/>
<path d="M13.5 18.3333C14.1213 18.3333 14.625 17.9229 14.625 17.4167C14.625 16.9104 14.1213 16.5 13.5 16.5C12.8787 16.5 12.375 16.9104 12.375 17.4167C12.375 17.9229 12.8787 18.3333 13.5 18.3333Z" stroke="#343434" stroke-width="2" stroke-linecap="round" stroke-linejoin="round"/>
</svg>
