<svg width="22" height="12" viewBox="0 0 22 12" fill="none" xmlns="http://www.w3.org/2000/svg">
<path d="M20.8389 5H1.16111C0.519847 5 0 5.42533 0 5.95V6.05C0 6.57467 0.519847 7 1.16111 7H20.8389C21.4802 7 22 6.57467 22 6.05V5.95C22 5.42533 21.4802 5 20.8389 5Z" fill="white"/>
<path d="M20.8389 10H1.16111C0.519847 10 0 10.4253 0 10.95V11.05C0 11.5747 0.519847 12 1.16111 12H20.8389C21.4802 12 22 11.5747 22 11.05V10.95C22 10.4253 21.4802 10 20.8389 10Z" fill="white"/>
<path d="M20.8389 0H1.16111C0.519847 0 0 0.425329 0 0.95V1.05C0 1.57467 0.519847 2 1.16111 2H20.8389C21.4802 2 22 1.57467 22 1.05V0.95C22 0.425329 21.4802 0 20.8389 0Z" fill="white"/>
</svg>
